# xmcd CD database file
#
# Track frame offsets:
#	150
#	17393
#	32921
#	49132
#	65737
#	79392
#	98969
#	116703
#	130445
#	147260
#	164259
#
# Disc length: 2400 seconds
#
# Revision: 1
# Processed by: cddbd v1.5.2PL0 Copyright (c) Steve Scherf et al.
# Submitted via: CDex 1.70beta2
#
DISCID=9c095e0b
DTITLE=Skaff-Links - Hybrid SKA
DYEAR=2010
DGENRE=Jazz
TTITLE0=The Gate Of Darkness
TTITLE1=Swinging London
TTITLE2=Go Ahead
TTITLE3=Family$
TTITLE4=The Legend Of Avalon
TTITLE5=Sunday Drivers
TTITLE6=You're Gone And I'm Lonely
TTITLE7=I Could Have Danced All Night
TTITLE8=Luck With You
TTITLE9=What Saves Me
TTITLE10=(japanisch)
EXTD=YEAR: 2010
EXTT0=
EXTT1=
EXTT2=
EXTT3=
EXTT4=
EXTT5=
EXTT6=
EXTT7=
EXTT8=
EXTT9=
EXTT10=
PLAYORDER=
